# xmcd
#
# Track frame offsets: 
#        150
#        19937
#        37022
#        57941
#        72983
#        87325
#        104550
#        120158
#        140357
#        162550
#        177717
#        192183
#        209157
#        226527
#        245875
#        266870
#
# Disc length: 3756 seconds
#
# Revision: 0
# Processed by: cddbd v1.5.2PL0 Copyright (c) Steve Scherf et al.
# Submitted via: ExactAudioCopyFreeDBPlugin 1.0
#
DISCID=f30eaa10
DTITLE=Robin Thicke - Blurred Lines (Deluxe Edition)
DYEAR=2013
DGENRE=R&B
TTITLE0=Blurred Lines (feat. T.I. and Pharrell)
TTITLE1=Take It Easy On Me
TTITLE2=Ooo La La
TTITLE3=Ain't No Hat 4 That
TTITLE4=Get In My Way
TTITLE5=Give It 2 U (feat. Kendrick Lamar)
TTITLE6=Feel Good
TTITLE7=Go Stupid 4 U
TTITLE8=4 The Rest Of My Life
TTITLE9=Top Of The World
TTITLE10=The Good Life
TTITLE11=Pressure
TTITLE12=Put Your Lovin On Me
TTITLE13=Give It 2 U (Remix) (feat. Kendrick Lamar and 2 Chainz) 
TTITLE14=Blurred Lines (Bee's Knees Remix) (feat. T.I. and Pharrell)
TTITLE15=4 The Rest Of My Life (Twice As Nice Remix)
EXTD=
EXTT0=
EXTT1=
EXTT2=
EXTT3=
EXTT4=
EXTT5=
EXTT6=
EXTT7=
EXTT8=
EXTT9=
EXTT10=
EXTT11=
EXTT12=
EXTT13=
EXTT14=
EXTT15=
PLAYORDER=
